<?xml version="1.0" standalone="no"?>
<!DOCTYPE svg PUBLIC "-//W3C//DTD SVG 20010904//EN"
 "http://www.w3.org/TR/2001/REC-SVG-20010904/DTD/svg10.dtd">
<svg version="1.0" xmlns="http://www.w3.org/2000/svg"
 width="200.000000pt" height="200.000000pt" viewBox="0 0 200.000000 200.000000"
 preserveAspectRatio="xMidYMid meet">

<g transform="translate(0.000000,200.000000) scale(0.100000,-0.100000)"
fill="#000000" stroke="none">
<path d="M0 1000 l0 -1000 1000 0 1000 0 0 1000 0 1000 -1000 0 -1000 0 0
-1000z m240 210 c0 -94 2 -103 25 -126 22 -22 35 -64 19 -64 -21 0 -73 35 -83
56 -6 14 -11 72 -11 129 l0 105 25 0 25 0 0 -100z m1430 10 l5 -84 33 42 c26
32 41 42 63 42 37 0 37 -9 -1 -45 -16 -16 -30 -34 -30 -39 0 -6 16 -34 36 -61
l35 -50 -28 -3 c-27 -4 -48 13 -72 57 -13 21 -41 -3 -41 -35 0 -19 -5 -24 -25
-24 l-25 0 0 146 c0 145 0 145 23 142 20 -3 22 -9 27 -88z m-1192 -23 c12 -13
25 -37 28 -55 l7 -32 -72 0 c-56 0 -71 -3 -71 -15 0 -8 9 -19 21 -25 16 -9 26
-8 44 4 55 36 89 6 39 -33 -99 -78 -223 61 -135 150 39 38 106 41 139 6z m212
3 c17 -17 20 -33 20 -98 l0 -78 -72 -2 c-82 -1 -108 13 -108 58 0 37 27 58 80
62 32 2 45 7 45 18 0 19 -32 25 -60 10 -12 -6 -32 -10 -45 -8 l-22 3 22 28
c18 23 29 27 71 27 36 0 54 -5 69 -20z m215 -3 c10 -15 15 -46 15 -99 0 -77 0
-78 -25 -78 -24 0 -25 3 -25 61 0 89 -25 122 -64 83 -11 -11 -16 -35 -16 -80
0 -62 -1 -64 -25 -64 -25 0 -25 0 -25 99 l0 98 75 1 c66 1 76 -1 90 -21z m99
-40 l19 -62 20 63 c19 55 24 62 47 62 23 0 28 -7 47 -62 l20 -63 18 63 c17 57
21 62 46 62 l28 0 -29 -82 c-41 -123 -40 -119 -68 -116 -20 2 -27 12 -37 46
-24 81 -25 81 -48 17 -19 -51 -26 -60 -46 -60 -22 0 -29 10 -57 90 -18 50 -33
93 -33 98 -1 4 11 7 27 7 25 0 29 -6 46 -63z m428 33 c28 -28 30 -36 25 -78
-4 -34 -12 -53 -32 -69 -47 -41 -133 -25 -161 28 -18 36 -18 63 1 99 20 38 41
49 93 50 35 0 49 -6 74 -30z m98 18 c0 -9 3 -9 12 0 21 21 48 14 48 -12 0 -18
-6 -25 -22 -28 -21 -3 -23 -10 -28 -73 -5 -68 -6 -70 -32 -73 l-28 -3 0 100 0
101 25 0 c14 0 25 -5 25 -12z m-1202 -250 c9 -9 12 -9 12 0 0 7 11 12 25 12
l25 0 0 -100 c0 -111 -14 -153 -52 -166 -57 -18 -128 8 -128 46 0 24 32 27 50
4 19 -22 64 -14 68 12 3 20 0 21 -41 17 -39 -5 -46 -2 -70 27 -57 67 -22 160
61 160 21 0 43 -5 50 -12z m132 2 c0 -7 7 -7 21 0 11 7 27 9 35 6 23 -9 16
-34 -13 -48 -26 -12 -28 -19 -31 -76 -3 -61 -3 -62 -32 -62 l-30 0 0 95 c0 95
0 95 25 95 14 0 25 -5 25 -10z m251 -19 c70 -71 5 -186 -95 -167 -74 14 -104
115 -50 170 39 38 105 37 145 -3z m111 -43 c3 -68 5 -73 27 -76 32 -5 41 12
41 86 0 59 1 62 25 62 25 0 25 0 25 -95 l0 -96 -32 1 c-18 0 -47 -2 -63 -6
-22 -4 -37 0 -54 13 -20 17 -23 27 -23 93 0 41 1 78 1 83 1 4 12 7 26 7 23 0
24 -3 27 -72z m319 46 c19 -20 24 -37 24 -76 0 -42 -4 -53 -28 -74 -30 -26
-66 -31 -98 -14 -17 10 -19 7 -19 -35 0 -41 -2 -45 -25 -45 l-25 0 0 134 0
133 74 1 c66 1 76 -1 97 -24z"/>
<path d="M383 1173 c-7 -2 -13 -11 -13 -19 0 -10 12 -14 40 -14 28 0 40 4 40
14 0 21 -37 32 -67 19z"/>
<path d="M585 1090 c-10 -16 4 -30 29 -30 22 0 46 17 46 32 0 12 -68 10 -75
-2z"/>
<path d="M1328 1169 c-21 -12 -24 -69 -6 -87 7 -7 25 -12 40 -12 34 0 53 36
39 74 -13 33 -42 44 -73 25z"/>
<path d="M255 910 c-27 -30 -10 -74 30 -78 50 -6 71 42 35 78 -25 25 -42 25
-65 0z"/>
<path d="M612 914 c-24 -17 -30 -62 -10 -82 29 -29 88 -2 88 39 0 19 -33 59
-48 59 -4 0 -18 -7 -30 -16z"/>
<path d="M1037 912 c-19 -21 -21 -45 -7 -73 13 -23 52 -25 70 -4 18 22 15 66
-6 82 -24 18 -38 16 -57 -5z"/>
</g>
</svg>
